#!OML:ASF H:\Dans Jumps\Project 1\Capture day 1\Session 1\subject.ASF
:FULLY-SPECIFIED
:DEGREES
731
root 0.44434 17.7415 6.48547 6.88407 -1.60816 -1.50657
lowerback -4.47417 0.336367 0.140765
upperback 1.30818 0.397334 1.15931
thorax 3.85094 0.186542 1.14722
lowerneck -10.1939 -0.497118 -2.19171
upperneck 13.5743 -0.477233 1.06265
head 5.78801 -0.264816 0.656265
rclavicle -1.9133e-015 6.55989e-015
rhumerus -28.1792 -14.9693 -80.2837
rradius 26.6846
rwrist 31.5044
rhand -19.5955 -26.1075
rfingers 7.12502
rthumb 6.73029 -55.9806
lclavicle -1.9133e-015 6.55989e-015
lhumerus -27.3442 0.771619 87.5737
lradius 20.9509
lwrist 7.07918
lhand -25.6232 -5.53894
lfingers 7.12502
lthumb 0.909672 24.4389
rfemur -12.6315 -2.75051 20.0467
rtibia 19.359
rfoot -12.3158 2.79763
rtoes 17.1572
lfemur -10.1113 6.71085 -17.7733
ltibia 16.0089
lfoot -8.47905 8.19409
ltoes 2.98187
732
root 0.44576 17.7414 6.48495 6.88183 -1.61663 -1.52783
lowerback -4.47468 0.338714 0.153656
upperback 1.31316 0.399491 1.16324
thorax 3.8564 0.187846 1.14425
lowerneck -10.1485 -0.503413 -2.205
upperneck 13.4991 -0.484888 1.06604
head 5.75684 -0.268792 0.65883
rclavicle -2.18663e-015 -8.15017e-015
rhumerus -28.1899 -14.9854 -80.2804
rradius 26.6797
rwrist 31.4898
rhand -19.6253 -26.0708
rfingers 7.12502
rthumb 6.70153 -55.9448
lclavicle -2.18663e-015 -8.15017e-015
lhumerus -27.3467 0.815547 87.5429
lradius 20.9164
lwrist 7.04911
lhand -25.632 -5.52903
lfingers 7.12502
lthumb 0.9012 24.4488
rfemur -12.6247 -2.74245 20.065
rtibia 19.3461
rfoot -12.3047 2.79585
rtoes 17.1496
lfemur -10.1177 6.71238 -17.7548
ltibia 16.0274
lfoot -8.48681 8.20457
ltoes 2.98245
733
root 0.447217 17.7412 6.48452 6.8777 -1.62633 -1.54746
lowerback -4.46791 0.339585 0.162298
upperback 1.31631 0.399975 1.16822
thorax 3.85586 0.188225 1.14454
lowerneck -10.0863 -0.512471 -2.2226
upperneck 13.4107 -0.495919 1.06919
head 5.71872 -0.274635 0.661763
rclavicle 1.83876e-015 8.54774e-015
rhumerus -28.2043 -14.9957 -80.2765
rradius 26.6767
rwrist 31.4744
rhand -19.6472 -26.0432
rfingers 7.12502
rthumb 6.68045 -55.9178
lclavicle 1.83876e-015 8.54774e-015
lhumerus -27.3501 0.863537 87.5106
lradius 20.877
lwrist 7.0157
lhand -25.6388 -5.51934
lfingers 7.12502
lthumb 0.894638 24.4585
rfemur -12.6146 -2.73895 20.0812
rtibia 19.3314
rfoot -12.2948 2.79984
rtoes 17.1444
lfemur -10.122 6.71358 -17.7382
ltibia 16.0472
lfoot -8.49645 8.21665
ltoes 2.99104
734
root 0.44867 17.741 6.48391 6.87422 -1.63649 -1.56965
lowerback -4.45463 0.339277 0.171183
upperback 1.31665 0.398899 1.17486
thorax 3.84875 0.187838 1.14621
lowerneck -10.0162 -0.521748 -2.23918
upperneck 13.3171 -0.507199 1.06959
head 5.67763 -0.280746 0.663656
rclavicle 6.70898e-015 -1.98785e-015
rhumerus -28.2194 -15.0034 -80.2723
rradius 26.6705
rwrist 31.4634
rhand -19.6566 -26.0226
rfingers 7.12502
rthumb 6.67132 -55.8975
lclavicle 6.70898e-015 -1.98785e-015
lhumerus -27.3561 0.921425 87.4752
lradius 20.8381
lwrist 6.97431
lhand -25.6489 -5.53058
lfingers 7.12502
lthumb 0.884818 24.4473
rfemur -12.6055 -2.73563 20.1004
rtibia 19.3171
rfoot -12.2857 2.80427
rtoes 17.1327
lfemur -10.1263 6.71468 -17.7187
ltibia 16.0654
lfoot -8.50807 8.22928
ltoes 3.00649
735
root 0.450115 17.7409 6.48335 6.86841 -1.64781 -1.57454
lowerback -4.44023 0.339182 0.162103
upperback 1.31796 0.399342 1.17703
thorax 3.84188 0.187833 1.15346
lowerneck -9.97144 -0.530196 -2.23689
upperneck 13.2435 -0.517174 1.05172
head 5.64707 -0.286623 0.656829
rclavicle -1.21756e-015 -2.98177e-015
rhumerus -28.2358 -15.0213 -80.2651
rradius 26.6702
rwrist 31.4754
rhand -19.6517 -26.0375
rfingers 7.12502
rthumb 6.6761 -55.9122
lclavicle -1.21756e-015 -2.98177e-015
lhumerus -27.3573 0.966681 87.4426
lradius 20.7956
lwrist 6.93728
lhand -25.6521 -5.54499
lfingers 7.12502
lthumb 0.881788 24.4329
rfemur -12.5965 -2.73781 20.1001
rtibia 19.3069
rfoot -12.2809 2.81364
rtoes 17.1219
lfemur -10.1254 6.71897 -17.7185
ltibia 16.0774
lfoot -8.51817 8.23692
ltoes 3.02736
736
root 0.451463 17.741 6.48268 6.86489 -1.65941 -1.57943
lowerback -4.42537 0.338483 0.151044
upperback 1.31851 0.399078 1.17994
thorax 3.83397 0.187426 1.16253
lowerneck -9.93993 -0.535082 -2.22834
upperneck 13.1786 -0.522412 1.02944
head 5.62142 -0.290196 0.64797
rclavicle 7.45443e-016 1.41137e-014
rhumerus -28.2511 -15.0394 -80.2573
rradius 26.6683
rwrist 31.4966
rhand -19.635 -26.054
rfingers 7.12502
rthumb 6.69221 -55.9282
lclavicle 7.45443e-016 1.41137e-014
lhumerus -27.3601 1.02099 87.4075
lradius 20.7585
lwrist 6.88928
lhand -25.6501 -5.56411
lfingers 7.12502
lthumb 0.883693 24.4138
rfemur -12.5924 -2.73603 20.1005
rtibia 19.2996
rfoot -12.2769 2.81937
rtoes 17.1153
lfemur -10.1255 6.72226 -17.7177
ltibia 16.0848
lfoot -8.52539 8.24413
ltoes 3.04937
737
root 0.452751 17.7411 6.48199 6.86397 -1.66964 -1.58176
lowerback -4.42584 0.34017 0.141507
upperback 1.32547 0.401826 1.17965
thorax 3.84132 0.188532 1.16785
lowerneck -9.95458 -0.53763 -2.20022
upperneck 13.1456 -0.525084 0.996642
head 5.61347 -0.292322 0.632789
rclavicle -5.46658e-015 -9.14409e-015
rhumerus -28.2544 -15.0753 -80.2504
rradius 26.6588
rwrist 31.5322
rhand -19.6174 -26.0674
rfingers 7.12502
rthumb 6.70914 -55.9411
lclavicle -5.46658e-015 -9.14409e-015
lhumerus -27.3511 1.07242 87.372
lradius 20.7217
lwrist 6.83418
lhand -25.6343 -5.55752
lfingers 7.12502
lthumb 0.898963 24.4203
rfemur -12.5934 -2.73388 20.0985
rtibia 19.2961
rfoot -12.2741 2.82411
rtoes 17.109
lfemur -10.1265 6.72875 -17.7199
ltibia 16.0864
lfoot -8.52827 8.24613
ltoes 3.06008
738
root 0.453942 17.7413 6.48132 6.86702 -1.67922 -1.58511
lowerback -4.43093 0.341421 0.132936
upperback 1.33223 0.403898 1.1794
thorax 3.8511 0.189318 1.17265
lowerneck -9.99038 -0.534402 -2.16164
upperneck 13.1264 -0.520443 0.958862
head 5.6133 -0.29074 0.614889
rclavicle 1.93815e-015 -8.94531e-015
rhumerus -28.2553 -15.1061 -80.2462
rradius 26.6488
rwrist 31.5658
rhand -19.5984 -26.0763
rfingers 7.12502
rthumb 6.72753 -55.9494
lclavicle 1.93815e-015 -8.94531e-015
lhumerus -27.3437 1.11979 87.3374
lradius 20.6904
lwrist 6.78485
lhand -25.6126 -5.52637
lfingers 7.12502
lthumb 0.919891 24.4514
rfemur -12.5989 -2.72731 20.098
rtibia 19.2923
rfoot -12.2698 2.82437
rtoes 17.104
lfemur -10.133 6.73713 -17.7212
ltibia 16.0883
lfoot -8.52891 8.24665
ltoes 3.06415
739
root 0.455064 17.7415 6.48075 6.87175 -1.6914 -1.58736
lowerback -4.43911 0.343749 0.124127
upperback 1.33829 0.407465 1.17756
thorax 3.86188 0.190857 1.17609
lowerneck -10.035 -0.527416 -2.12026
upperneck 13.1171 -0.51156 0.924775
head 5.61767 -0.286713 0.59802
rclavicle 2.11209e-015 5.96354e-015
rhumerus -28.2572 -15.1354 -80.2443
rradius 26.6375
rwrist 31.5977
rhand -19.5816 -26.0797
rfingers 7.12502
rthumb 6.7437 -55.9523
lclavicle 2.11209e-015 5.96354e-015
lhumerus -27.3398 1.16134 87.3034
lradius 20.6641
lwrist 6.73957
lhand -25.5848 -5.4734
lfingers 7.12502
lthumb 0.946796 24.5042
rfemur -12.6074 -2.71654 20.0964
rtibia 19.2895
rfoot -12.2648 2.82419
rtoes 17.1011
lfemur -10.1405 6.74855 -17.7238
ltibia 16.0892
lfoot -8.52619 8.24578
ltoes 3.05872
740
root 0.456122 17.7416 6.48033 6.87696 -1.70525 -1.59367
lowerback -4.44958 0.346599 0.119797
upperback 1.34317 0.411433 1.17635
thorax 3.87276 0.192697 1.17771
lowerneck -10.071 -0.518843 -2.08318
upperneck 13.1062 -0.501051 0.897459
head 5.62003 -0.281633 0.584122
rclavicle -8.59744e-015 3.18055e-015
rhumerus -28.2606 -15.1605 -80.2435
rradius 26.6247
rwrist 31.6266
rhand -19.5646 -26.08
rfingers 7.12502
rthumb 6.76011 -55.952
lclavicle -8.59744e-015 3.18055e-015
lhumerus -27.3429 1.19381 87.2713
lradius 20.6442
lwrist 6.70451
lhand -25.5496 -5.41059
lfingers 7.12502
lthumb 0.980735 24.5669
rfemur -12.6162 -2.70001 20.0991
rtibia 19.2877
rfoot -12.2605 2.8211
rtoes 17.0934
lfemur -10.1469 6.76193 -17.7218
ltibia 16.0888
lfoot -8.52358 8.24522
ltoes 3.05805
741
root 0.457268 17.7416 6.4801 6.88211 -1.72081 -1.59495
lowerback -4.46189 0.350041 0.112988
upperback 1.3471 0.416434 1.17254
thorax 3.88366 0.195024 1.17813
lowerneck -10.0945 -0.511348 -2.05594
upperneck 13.0922 -0.492292 0.880897
head 5.61941 -0.277127 0.57509
rclavicle -1.78906e-015 1.15295e-014
rhumerus -28.2667 -15.182 -80.244
rradius 26.6132
rwrist 31.6474
rhand -19.5465 -26.0782
rfingers 7.12502
rthumb 6.77761 -55.9498
lclavicle -1.78906e-015 1.15295e-014
lhumerus -27.3542 1.21844 87.2411
lradius 20.6337
lwrist 6.67503
lhand -25.5161 -5.35016
lfingers 7.12502
lthumb 1.01306 24.6272
rfemur -12.6255 -2.68927 20.0958
rtibia 19.2872
rfoot -12.2566 2.82425
rtoes 17.0811
lfemur -10.1512 6.77409 -17.7262
ltibia 16.0864
lfoot -8.51922 8.24676
ltoes 3.05999
742
root 0.458501 17.7416 6.48001 6.88399 -1.73663 -1.59301
lowerback -4.47185 0.353674 0.105413
upperback 1.35017 0.42183 1.16706
thorax 3.89236 0.197558 1.17726
lowerneck -10.09 -0.50804 -2.0453
upperneck 13.0641 -0.489263 0.878966
head 5.60977 -0.27517 0.572951
rclavicle 6.58474e-015 6.16232e-015
rhumerus -28.2774 -15.1974 -80.2449
rradius 26.6038
rwrist 31.6574
rhand -19.5326 -26.0723
rfingers 7.12502
rthumb 6.79101 -55.9434
lclavicle 6.58474e-015 6.16232e-015
lhumerus -27.3716 1.23811 87.2124
lradius 20.6287
lwrist 6.64959
lhand -25.4988 -5.33681
lfingers 7.12502
lthumb 1.0298 24.6404
rfemur -12.6308 -2.68441 20.0884
rtibia 19.287
rfoot -12.2543 2.83273
rtoes 17.0698
lfemur -10.15 6.78498 -17.7341
ltibia 16.0831
lfoot -8.51708 8.24952
ltoes 3.06507
743
root 0.459834 17.7416 6.48004 6.88448 -1.75151 -1.58983
lowerback -4.48229 0.357656 0.0993615
upperback 1.3535 0.427639 1.16044
thorax 3.9016 0.200346 1.1744
lowerneck -10.0756 -0.506861 -2.04394
upperneck 13.0348 -0.48907 0.885446
head 5.59813 -0.274456 0.574763
rclavicle -2.60905e-015 -9.54166e-015
rhumerus -28.2894 -15.2113 -80.2457
rradius 26.5959
rwrist 31.6585
rhand -19.5272 -26.0631
rfingers 7.12502
rthumb 6.79628 -55.934
lclavicle -2.60905e-015 -9.54166e-015
lhumerus -27.3906 1.25964 87.1832
lradius 20.6269
lwrist 6.61949
lhand -25.483 -5.3304
lfingers 7.12502
lthumb 1.04506 24.6468
rfemur -12.6339 -2.68659 20.0793
rtibia 19.2873
rfoot -12.2531 2.84697
rtoes 17.0611
lfemur -10.146 6.79547 -17.7437
ltibia 16.079
lfoot -8.51755 8.25153
ltoes 3.07847
744
root 0.461194 17.7417 6.48006 6.88389 -1.76372 -1.58675
lowerback -4.49224 0.361081 0.095266
upperback 1.3578 0.432591 1.15359
thorax 3.91159 0.202753 1.17014
lowerneck -10.0519 -0.508059 -2.05555
upperneck 13.0015 -0.49177 0.902675
head 5.58378 -0.275015 0.581858
rclavicle 8.94531e-016 6.36111e-015
rhumerus -28.3016 -15.2245 -80.2463
rradius 26.5916
rwrist 31.6542
rhand -19.5284 -26.0542
rfingers 7.12502
rthumb 6.79509 -55.9252
lclavicle 8.94531e-016 6.36111e-015
lhumerus -27.4088 1.28447 87.1536
lradius 20.6293
lwrist 6.58801
lhand -25.4867 -5.36268
lfingers 7.12502
lthumb 1.04146 24.6145
rfemur -12.6342 -2.69283 20.0703
rtibia 19.2859
rfoot -12.2522 2.86212
rtoes 17.052
lfemur -10.1419 6.80465 -17.753
ltibia 16.0767
lfoot -8.52671 8.25298
ltoes 3.12848
